# xmcd
#
# Track frame offsets:
#	150
#	16852
#	35583
#	47137
#	68726
#	82771
#	98328
#	109284
#	124928
#	136662
#	147747
#	162217
#	178412
#	195587
#	209185
#	225325
#	242775
#	256653
#	278726
#	290657
#	299768
#	313110
#
# Disc length: 4394 seconds
#
# Revision: 0
# Processed by: cddbd v1.4PL0 Copyright (c) Steve Scherf et al.
# Submitted via: audiograbber 1.81.02
#
DISCID=4a112816
DTITLE=RXR - Bachler Live 2001
DYEAR=2001
DGENRE=Live
TTITLE0=Perfectly Good Guitar
TTITLE1=Take it to the run
TTITLE2=WholeStop The Rain
TTITLE3=Knock in the Heavens Door
TTITLE4=Ka Idee
TTITLE5=Irgendwann bleib i dann do
TTITLE6=Factory
TTITLE7=Madl holt mi fest
TTITLE8=Country Road
TTITLE9=Let´s have fun
TTITLE10=When you still love me
TTITLE11=Don´t think twice
TTITLE12=The Boxer
TTITLE13=Bergwerk
TTITLE14=I´m from Austria
TTITLE15=City of New Orleans
TTITLE16=Lovin´you out Loud
TTITLE17=Turn The Page
TTITLE18=Teach your children 
TTITLE19=Mercedes Benz
TTITLE20=Wonderful tonight
TTITLE21=Lucky Man
EXTD=
EXTT0=
EXTT1=
EXTT2=
EXTT3=
EXTT4=
EXTT5=
EXTT6=
EXTT7=
EXTT8=
EXTT9=
EXTT10=
EXTT11=
EXTT12=
EXTT13=
EXTT14=
EXTT15=
EXTT16=
EXTT17=
EXTT18=
EXTT19=
EXTT20=
EXTT21=
PLAYORDER=
